# xmcd
#
# Track frame offsets: 
#        150
#        19979
#        36789
#        56156
#
# Disc length: 958 seconds
#
# Revision: 0
# Processed by: cddbd v1.5.2PL0 Copyright (c) Steve Scherf et al.
# Submitted via: ExactAudioCopyFreeDBPlugin 1.0
#
DISCID=3003bc04
DTITLE=The Desert Blues Cartel - Carrington St Demo
DYEAR=2012
DGENRE=Blues
TTITLE0=The Good TImes
TTITLE1=Too Drunk to Fuck
TTITLE2=Jackson Blues
TTITLE3=Light the Fire
EXTD=
EXTT0=
EXTT1=
EXTT2=
EXTT3=
PLAYORDER=
